<svg xmlns="http://www.w3.org/2000/svg" viewBox="0 0 64 64" width="64" height="64">
  <defs>
    <linearGradient id="favGradient" x1="0%" y1="0%" x2="100%" y2="100%">
      <stop offset="0%" style="stop-color:#2D8B9E;stop-opacity:1" />
      <stop offset="100%" style="stop-color:#3D7A4A;stop-opacity:1" />
    </linearGradient>
  </defs>
  
  <!-- Background circle (optional - for visibility) -->
  <circle cx="32" cy="32" r="30" fill="white"/>
  
  <!-- Circle outline -->
  <circle cx="32" cy="32" r="27" fill="none" stroke="url(#favGradient)" stroke-width="3"/>
  
  <!-- Wave lines at bottom -->
  <path d="M10 38 Q17 34, 24 38 T38 38 T52 38" fill="none" stroke="url(#favGradient)" stroke-width="2.5" stroke-linecap="round"/>
  <path d="M14 46 Q21 42, 28 46 T42 46 T50 46" fill="none" stroke="url(#favGradient)" stroke-width="2.5" stroke-linecap="round"/>
  
  <!-- Grass/plant blades -->
  <path d="M24 36 L24 18 Q24 13, 29 10" fill="none" stroke="url(#favGradient)" stroke-width="3" stroke-linecap="round"/>
  <path d="M32 36 L32 12" fill="none" stroke="url(#favGradient)" stroke-width="3" stroke-linecap="round"/>
  <path d="M40 36 L40 18 Q40 13, 35 10" fill="none" stroke="url(#favGradient)" stroke-width="3" stroke-linecap="round"/>
  <path d="M28 36 L28 22 Q28 18, 24 15" fill="none" stroke="url(#favGradient)" stroke-width="2.5" stroke-linecap="round"/>
  <path d="M36 36 L36 22 Q36 18, 40 15" fill="none" stroke="url(#favGradient)" stroke-width="2.5" stroke-linecap="round"/>
</svg>
